<svg xmlns="http://www.w3.org/2000/svg" width="128" height="128" viewBox="0 0 26 26">
    <path d="M 13 2 C 9.8227682 2 7.4790789 2.6695973 5.78125 3.71875 A 1.5006509 1.5006509 0 0 0 5.125 5.46875 C 4.9745802 5.6092416 4.8181702 5.7605584 4.6875 5.90625 C 3.2687951 7.4880446 3 9.2615626 3 10.15625 L 3 11 C 0.97882349 12.512445 0 14.19365 0 15 L 0 22 C 0 23.656 1.344 25 3 25 L 23 25 C 24.656 25 26 23.656 26 22 L 26 15 C 26 14.19365 25.021177 12.512445 23 11 L 23 10.15625 C 23 9.2615626 22.731205 7.4880446 21.3125 5.90625 C 21.18183 5.7605584 21.02542 5.6092416 20.875 5.46875 A 1.5006509 1.5006509 0 0 0 20.21875 3.71875 C 18.520795 2.6671212 16.182553 2 13 2 z M 13 5 C 15.763447 5 17.522205 5.5788788 18.65625 6.28125 A 1.5006509 1.5006509 0 0 0 20.25 6.25 C 20.357221 6.3532614 20.467926 6.4570543 20.5625 6.5625 C 21.773045 7.9122054 22 9.4769374 22 10.15625 L 22 10.3125 C 19.887439 9.0230918 16.906875 8 13 8 C 9.093125 8 6.112561 9.0230918 4 10.3125 L 4 10.15625 C 4 9.4769374 4.2269549 7.9122054 5.4375 6.5625 C 5.5320738 6.4570543 5.6427792 6.3532614 5.75 6.25 A 1.5006509 1.5006509 0 0 0 7.34375 6.28125 C 8.4779211 5.5804027 10.241232 5 13 5 z M 13 10 C 20.147328 10 23.536545 13.77371 23.96875 15 L 22 15 C 20.344 15 18 16.5 18 19 C 18 21.5 20.344 22 22 22 L 24 22 C 24 22.552 23.552 23 23 23 L 3 23 C 2.448 23 2 22.552 2 22 L 4 22 C 5.656 22 8 21.5 8 19 C 8 16.5 5.656 15 4 15 L 2.03125 15 C 2.4634551 13.77371 5.852672 10 13 10 z M 13 12 C 9 12 7.46875 13 7.46875 13 C 7.46875 13 9.5 14.016 9.5 16 L 16.5 16 C 16.5 14 18.53125 13 18.53125 13 C 18.53125 13 17 12 13 12 z"/>
</svg>